<?xml version="1.0" encoding="UTF-8" standalone="no"?>
<!-- Created with Inkscape (http://www.inkscape.org/) -->

<svg
   width="42.163727"
   height="41.137627"
   viewBox="0 0 11.155819 10.884331"
   version="1.1"
   id="svg5"
   xml:space="preserve"
   xmlns="http://www.w3.org/2000/svg"
   xmlns:svg="http://www.w3.org/2000/svg"><defs
     id="defs2"><style
       id="style1341">.cls-1{fill:#6db33f;}</style></defs><g
     id="layer1"
     transform="translate(-517.28986,-757.5869)"><path
       id="path47-5-7"
       d="m 522.90171,757.5869 c -0.66753,0 -1.1993,0.54308 -1.1993,1.19931 0,0.66754 0.54308,1.19931 1.1993,1.19931 0.66754,0 1.19931,-0.54309 1.19931,-1.19931 v 0 c 0,-0.65623 -0.53177,-1.19931 -1.19931,-1.19931 z m -3.95997,2.7833 c -0.21497,0 -0.42994,0.0113 -0.62229,0.0679 -0.13577,0.0339 -0.26022,0.0905 -0.33942,0.16971 -0.10183,0.11314 -0.11315,0.24891 -0.0679,0.37337 0.0453,0.11314 0.16972,0.19234 0.30549,0.2376 0.29417,0.10183 0.62228,0.12445 0.92776,0.18103 0.0566,0.0113 0.12446,0.0339 0.1584,0.0679 0.0339,0.0453 0.0113,0.11314 -0.0453,0.13577 -0.10182,0.0566 -0.22628,0.0566 -0.35074,0.0453 -0.10182,0 -0.22628,-0.0113 -0.30548,-0.0679 -0.0679,-0.0339 -0.0679,-0.10182 -0.0566,-0.1584 h -0.69017 c 0,0.10183 0.0226,0.21497 0.0905,0.30549 0.0679,0.0792 0.16972,0.13577 0.28286,0.1584 0.18103,0.0566 0.37337,0.0679 0.56571,0.0679 0.26023,0 0.52046,0 0.76937,-0.0566 0.14708,-0.0339 0.29417,-0.0905 0.38468,-0.19234 0.16972,-0.16971 0.12446,-0.44125 -0.0905,-0.56571 -0.11314,-0.0679 -0.24891,-0.10183 -0.38469,-0.13577 -0.20365,-0.0453 -0.39599,-0.0679 -0.59965,-0.10183 -0.0679,-0.0113 -0.14708,-0.0226 -0.20366,-0.0566 -0.0566,-0.0339 -0.0679,-0.11314 0,-0.14709 0.0792,-0.0453 0.19235,-0.0453 0.29417,-0.0453 0.10183,0 0.21497,0.0113 0.30549,0.0566 0.0453,0.0226 0.0679,0.0679 0.0679,0.11314 h 0.65623 c 0,-0.0792 -0.0226,-0.16971 -0.0792,-0.2376 -0.0679,-0.0905 -0.19234,-0.14708 -0.3168,-0.18103 -0.2376,-0.0226 -0.45257,-0.0339 -0.65622,-0.0339 z m 1.41427,0.0453 v 1.56136 h 1.91211 v -0.33943 h -1.21062 v -0.30548 h 1.07485 v -0.32811 h -1.07485 v -0.24892 h 1.16536 v -0.33942 z m 3.15667,0 c 0,0 -0.58834,0 -0.88251,0 v 1.56136 h 0.66754 v -1.05222 l 0.91645,1.05222 h 0.91646 v -1.56136 h -0.66754 v 1.04091 z m 2.81724,0 c 0,0 -0.72411,1.04091 -1.08616,1.56136 h 0.70148 l 0.16971,-0.28285 h 1.08617 l 0.1584,0.28285 h 0.78068 l -1.02959,-1.56136 z m 0.35075,0.37337 0.33942,0.56571 h -0.69017 z m -9.39081,1.64056 0.0113,0.84857 3.19061,-0.0113 c 0.1584,0.034 0.26023,0.13577 0.22629,0.38469 l -1.96868,3.42821 0.6336,0.59965 3.03221,-5.2498 z m 6.07574,0 2.98695,5.22717 0.65623,-0.58834 -1.97999,-3.42821 c -0.0339,-0.2376 0.0566,-0.35074 0.22628,-0.38468 l 3.19061,0.0113 v -0.83725 z m -0.49783,0.8712 -2.80593,4.79723 0.74674,0.36205 1.86685,-3.15667 c 0.0679,-0.0566 0.12446,-0.0792 0.19234,-0.0792 0.0679,0 0.13577,0.0226 0.20366,0.0792 l 1.86684,3.16799 0.76937,-0.396 z"
       style="fill:#f1e3c4;fill-opacity:1;stroke-width:0.113142" /></g><style
     type="text/css"
     id="style1256">
	.st0{fill:#DD0031;}
	.st1{fill:#C3002F;}
	.st2{fill:#FFFFFF;}
</style></svg>
