<?xml version="1.0" encoding="UTF-8" standalone="no"?>
<!-- Created with Inkscape (http://www.inkscape.org/) -->

<svg
   width="15.464301"
   height="20.000031"
   viewBox="0 0 4.0915963 5.291675"
   version="1.1"
   id="svg5"
   xml:space="preserve"
   xmlns="http://www.w3.org/2000/svg"
   xmlns:svg="http://www.w3.org/2000/svg"><defs
     id="defs2"><style
       id="style1341">.cls-1{fill:#6db33f;}</style></defs><g
     id="layer1"
     transform="translate(-8.2367443,0.03291259)"><path
       id="rect16905-1-1"
       style="opacity:0.820513;fill:#f1e3c4;fill-opacity:1;stroke:none;stroke-width:1.64732;stroke-linejoin:round;paint-order:markers stroke fill"
       d="M 9.6571255,-0.03291259 V 1.0114594 c 0,5.29e-4 2e-4,9.99e-4 2e-4,0.002 0,0.006 0,0.01228 0,0.01807 v 9e-5 c -0.01,0.02047 -0.01598,0.03844 -0.03095,0.05132 -0.01,0.004 -0.01,0.007 -0.01398,0.01 -0.01198,0.007 -0.02696,0.01088 -0.04294,0.01088 h -1.332711 v 3.8617 c 0,0.162448 0.130705,0.293243 0.293163,0.293243 h 3.5051705 c 0.162458,0 0.293263,-0.130795 0.293263,-0.293243 V 0.26090741 c 0,-0.162438 -0.130805,-0.293223 -0.293263,-0.293223 z m -0.179931,0.03814 -1.162466,0.918041 h 1.162466 z M 9.5838355,1.7929704 H 11.35649 c 0.04993,0 0.08987,0.04014 0.08987,0.08997 0,0.04983 -0.03994,0.08997 -0.08987,0.08997 H 9.5838355 c -0.04993,0 -0.08987,-0.04014 -0.08987,-0.08997 0,-0.04983 0.03994,-0.08997 0.08987,-0.08997 z m -0.423169,0.603011 h 2.1924295 c 0.04993,0 0.08986,0.04014 0.08986,0.08997 0,0.04983 -0.03994,0.08997 -0.08986,0.08997 H 9.1606665 c -0.04993,0 -0.08987,-0.04014 -0.08987,-0.08997 0,-0.04983 0.03994,-0.08997 0.08987,-0.08997 z m -0.01,0.606415 h 2.2057095 c 0.04992,0 0.08987,0.04014 0.08987,0.08997 0,0.04983 -0.03994,0.08987 -0.08987,0.08987 H 9.1506665 c -0.04993,0 -0.08987,-0.04014 -0.08987,-0.08987 0,-0.04983 0.03994,-0.08997 0.08987,-0.08997 z m 0.01398,0.606426 h 2.1991195 c 0.04992,0 0.08987,0.04014 0.08987,0.08997 0,0.04982 -0.03994,0.08996 -0.08987,0.08996 H 9.1646465 c -0.04993,0 -0.08987,-0.04014 -0.08987,-0.08996 0,-0.04983 0.03994,-0.08997 0.08987,-0.08997 z m 0.01,0.613075 h 1.7725555 c 0.04993,0 0.08987,0.04014 0.08987,0.08997 0,0.04983 -0.03994,0.08997 -0.08987,0.08997 H 9.1746465 c -0.04993,0 -0.08987,-0.04014 -0.08987,-0.08997 0,-0.04983 0.03994,-0.08997 0.08987,-0.08997 z" /></g><style
     type="text/css"
     id="style1256">
	.st0{fill:#DD0031;}
	.st1{fill:#C3002F;}
	.st2{fill:#FFFFFF;}
</style></svg>
