<?xml version="1.0" encoding="UTF-8" standalone="no"?>
<!-- Created with Inkscape (http://www.inkscape.org/) -->

<svg
   width="20.000027"
   height="19.578564"
   viewBox="0 0 5.2916737 5.1801619"
   version="1.1"
   id="svg5"
   xml:space="preserve"
   xmlns="http://www.w3.org/2000/svg"
   xmlns:svg="http://www.w3.org/2000/svg"><defs
     id="defs2"><style
       id="style1341">.cls-1{fill:#6db33f;}</style></defs><g
     id="layer1"
     transform="translate(-15.842544,-0.03242741)"><path
       d="m 18.4981,0.03242741 c -1.467246,0 -2.655556,1.18833999 -2.655556,2.65557599 0,1.175069 0.760133,2.167572 1.81574,2.519304 0.132703,0.02345 0.182316,-0.05633 0.182316,-0.126127 0,-0.06284 -0.01002,-0.27199 -0.01002,-0.494638 -0.667121,0.12289 -0.839614,-0.162541 -0.892635,-0.311691 -0.03007,-0.07647 -0.159364,-0.312202 -0.272522,-0.375205 -0.09321,-0.04961 -0.225614,-0.172744 -0.01002,-0.176032 0.209177,0 0.358617,0.192649 0.408431,0.272271 0.239045,0.401796 0.620715,0.288668 0.773464,0.218909 0.02305,-0.172513 0.09321,-0.288658 0.169185,-0.35518 -0.590847,-0.06625 -1.208155,-0.295303 -1.208155,-1.311059 0,-0.288669 0.102735,-0.527654 0.272021,-0.713608 -0.02706,-0.06645 -0.119372,-0.338682 0.02706,-0.703845 0,0 0.222307,-0.06966 0.730366,0.272271 0.212484,-0.05954 0.437999,-0.0896 0.663914,-0.0896 0.225514,0 0.451429,0.03007 0.663914,0.0896 0.507958,-0.345257 0.730065,-0.272271 0.730065,-0.272271 0.146233,0.365163 0.05312,0.637384 0.02706,0.703845 0.169186,0.185954 0.272221,0.421431 0.272221,0.713608 0,1.018993 -0.620715,1.244588 -1.211563,1.311059 0.09622,0.08309 0.179209,0.242553 0.179209,0.491461 0,0.35513 -0.01002,0.640551 -0.01002,0.730105 0,0.06976 0.05011,0.152888 0.182316,0.126348 1.049393,-0.351953 1.809326,-1.347914 1.809326,-2.519525 0,-1.467236 -1.18831,-2.65557599 -2.655556,-2.65557599 z"
       id="path7547-5-19-7-2-7-4-1-9-5-55"
       style="opacity:0.820513;fill:#f1e3c4;fill-opacity:1;stroke-width:0.230918" /></g><style
     type="text/css"
     id="style1256">
	.st0{fill:#DD0031;}
	.st1{fill:#C3002F;}
	.st2{fill:#FFFFFF;}
</style></svg>
