<?xml version="1.0" encoding="UTF-8" standalone="no"?>
<!-- Created with Inkscape (http://www.inkscape.org/) -->

<svg
   width="20"
   height="20"
   viewBox="0 0 5.2916666 5.2916669"
   version="1.1"
   id="svg5"
   xml:space="preserve"
   xmlns="http://www.w3.org/2000/svg"
   xmlns:svg="http://www.w3.org/2000/svg"><defs
     id="defs2"><style
       id="style1341">.cls-1{fill:#6db33f;}</style></defs><g
     id="layer1"><path
       d="M 5.2916669,0.38588988 V 4.9058359 c 0,0.213105 -0.172861,0.385766 -0.385965,0.385766 H 0.38586487 c -0.213104,0 -0.385864995,-0.172661 -0.385864995,-0.385766 V 0.38588987 C -1.25e-7,0.17278587 0.17276087,6.4875e-5 0.38586487,6.4875e-5 H 4.9057019 c 0.213204,0 0.385965,0.172720995 0.385965,0.385825005 z M 1.5433609,1.9844249 H 0.77173087 v 2.535576 H 1.5433609 Z m 0.06591,-0.826824 c 0.01,-0.40266202 -0.479536,-0.61015503 -0.76763603,-0.32893403 -0.288201,0.28116003 -0.09287,0.77048203 0.31017003,0.77543503 h 0.01 c 0.243562,0.006 0.445982,-0.186392 0.451974,-0.429944 z m 2.910367,1.843196 c 0,-0.771651 -0.510393,-1.071536 -0.953579,-1.071536 -0.443186,0 -0.77173,0.257993 -0.84443,0.413438 h -0.01 v -0.358274 h -0.727579 v 2.535576 h 0.771731 v -1.322926 c 0,-0.406827 0.276717,-0.587606 0.545744,-0.587606 0.220394,0 0.446381,0.169785 0.446381,0.577719 v 1.332813 h 0.771731 z"
       fill="currentColor"
       id="path37275-3-5-4-3-6-5-1-6-5-7-1"
       style="opacity:0.820513;fill:#f1e3c4;fill-opacity:1;stroke-width:0.110241" /></g><style
     type="text/css"
     id="style1256">
	.st0{fill:#DD0031;}
	.st1{fill:#C3002F;}
	.st2{fill:#FFFFFF;}
</style></svg>
