<?xml version="1.0" encoding="UTF-8" standalone="no"?>
<!-- Created with Inkscape (http://www.inkscape.org/) -->

<svg
   width="20.000061"
   height="15.866531"
   viewBox="0 0 5.2916827 4.1980199"
   version="1.1"
   id="svg5"
   xml:space="preserve"
   xmlns="http://www.w3.org/2000/svg"
   xmlns:svg="http://www.w3.org/2000/svg"><defs
     id="defs2"><style
       id="style1341">.cls-1{fill:#6db33f;}</style></defs><g
     id="layer1"
     transform="translate(-24.416589,-0.62030142)"><path
       d="m 29.285504,1.1139344 0.422767,-0.40441299 -3e-4,-0.08922 H 28.246453 L 27.204707,3.2193034 26.019643,0.62062641 h -1.532977 v 0.08893 l 0.493926,0.59464799 c 0.02395,0.02146 0.04192,0.0483 0.05389,0.07835 0.01198,0.02994 0.01597,0.06228 0.01198,0.09421 v 2.337562 c 0.01,0.04152 0.01,0.08423 -0.01,0.124504 -0.01198,0.04022 -0.03393,0.07705 -0.06387,0.107378 l -0.556004,0.674061 v 0.08853 h 1.574995 v -0.08853 l -0.555605,-0.674061 c -0.02994,-0.03034 -0.0519,-0.06697 -0.06487,-0.107128 -0.01297,-0.04012 -0.01697,-0.08284 -0.01098,-0.124754 v -2.021365 l 1.382374,3.016153 h 0.160783 l 1.187359,-3.016153 v 2.40415 c 0,0.06357 0,0.07615 -0.04192,0.118057 l -0.427358,0.414623 v 0.08853 h 2.073911 v -0.08853 L 29.28299,4.3250494 c -0.01796,-0.01367 -0.03194,-0.03184 -0.03992,-0.0527 -0.01,-0.02086 -0.01098,-0.04361 -0.01,-0.06567 v -2.974216 c -0.01,-0.02216 0,-0.04481 0.01,-0.06567 0.01,-0.02086 0.02196,-0.03902 0.03992,-0.0527 z"
       fill="#000000"
       id="path2084-6-3-8-5-1-9-7-7"
       style="opacity:0.820513;fill:#f1e3c4;fill-opacity:1;stroke-width:0.503667" /></g><style
     type="text/css"
     id="style1256">
	.st0{fill:#DD0031;}
	.st1{fill:#C3002F;}
	.st2{fill:#FFFFFF;}
</style></svg>
