<?xml version="1.0" encoding="UTF-8" standalone="no"?>
<!-- Created with Inkscape (http://www.inkscape.org/) -->

<svg
   width="20"
   height="14.000038"
   viewBox="0 0 5.2916666 3.7041769"
   version="1.1"
   id="svg5"
   xml:space="preserve"
   xmlns="http://www.w3.org/2000/svg"
   xmlns:svg="http://www.w3.org/2000/svg"><defs
     id="defs2"><style
       id="style1341">.cls-1{fill:#6db33f;}</style></defs><g
     id="layer1"
     transform="translate(-33.119985,-0.97558741)"><path
       id="path39744-0-5-2-1-2-1-0-2-4-8-5-4"
       style="opacity:0.820513;fill:#f1e3c4;fill-opacity:1;stroke-width:0.185214"
       d="m 35.765917,0.97558741 c 0,0 -1.654906,0 -2.067335,0.11066699 -0.227784,0.06091 -0.406836,0.239937 -0.467752,0.467711 -0.110646,0.412549 -0.110846,1.273765 -0.110846,1.273765 0,0 2e-4,0.861097 0.110846,1.273645 0.06092,0.227834 0.239968,0.406777 0.467752,0.467782 0.412429,0.110607 2.067335,0.110607 2.067335,0.110607 0,0 1.654807,0 2.067335,-0.110607 0.227785,-0.06102 0.406737,-0.239948 0.467752,-0.467782 0.110647,-0.412548 0.110647,-1.273645 0.110647,-1.273645 0,0 -5.99e-4,-0.861216 -0.110647,-1.273765 -0.06092,-0.227774 -0.239967,-0.406766 -0.467752,-0.467711 C 37.420724,0.97558741 35.765917,0.97558741 35.765917,0.97558741 Z m -0.529666,1.05854299 1.374795,0.7936 -1.374795,0.79371 z" /></g><style
     type="text/css"
     id="style1256">
	.st0{fill:#DD0031;}
	.st1{fill:#C3002F;}
	.st2{fill:#FFFFFF;}
</style></svg>
